<?xml version="1.0" standalone="no"?>
<!DOCTYPE svg PUBLIC "-//W3C//DTD SVG 20010904//EN"
 "http://www.w3.org/TR/2001/REC-SVG-20010904/DTD/svg10.dtd">
<svg version="1.0" xmlns="http://www.w3.org/2000/svg"
 width="980.000000pt" height="980.000000pt" viewBox="0 0 980.000000 980.000000"
 preserveAspectRatio="xMidYMid meet">

<g transform="translate(0.000000,980.000000) scale(0.100000,-0.100000)"
fill="#000000" stroke="none">
<path d="M4755 8320 c-1270 -80 -2400 -817 -2974 -1940 -266 -520 -394 -1051
-394 -1635 0 -259 17 -441 64 -682 278 -1432 1400 -2554 2832 -2832 241 -47
423 -64 682 -64 259 0 441 17 682 64 1432 278 2554 1400 2832 2832 47 241 64
423 64 682 0 259 -17 441 -64 682 -278 1432 -1400 2554 -2832 2832 -282 55
-622 78 -892 61z m386 -501 c665 -51 1240 -274 1744 -675 141 -112 367 -338
479 -479 346 -436 562 -931 646 -1482 48 -315 48 -562 0 -876 -84 -552 -300
-1046 -646 -1482 -112 -141 -338 -367 -479 -479 -510 -406 -1086 -626 -1766
-677 -322 -24 -747 34 -1099 151 -475 156 -872 401 -1226 754 -353 354 -598
751 -754 1226 -117 352 -175 777 -151 1099 51 680 271 1256 677 1766 112 141
338 367 479 479 495 394 1079 623 1720 674 158 13 224 13 376 1z"/>
<path d="M4830 7614 c-14 -2 -68 -11 -120 -20 -149 -25 -182 -31 -235 -49 -49
-16 -65 -21 -155 -54 -25 -9 -56 -24 -70 -34 -13 -9 -32 -17 -40 -17 -9 0 -31
-11 -50 -25 -19 -14 -38 -25 -42 -25 -7 0 -92 -57 -172 -114 -51 -38 -262
-250 -298 -301 -84 -118 -108 -155 -108 -164 0 -4 -9 -20 -20 -34 -12 -14 -26
-41 -32 -59 -6 -18 -16 -40 -23 -48 -7 -8 -16 -26 -19 -40 -4 -14 -15 -45 -26
-70 -31 -75 -67 -210 -80 -300 -7 -47 -16 -107 -20 -135 -5 -27 -9 -190 -9
-361 -1 -227 -4 -313 -13 -322 -7 -7 -36 -12 -65 -12 -63 0 -164 -38 -206 -78
-15 -14 -40 -51 -55 -82 l-27 -55 0 -1235 0 -1235 25 -95 c13 -52 33 -106 42
-119 10 -13 18 -29 18 -36 0 -21 95 -133 152 -179 91 -74 149 -99 313 -136 23
-5 649 -9 1445 -10 1264 0 1412 2 1465 16 33 9 80 20 104 25 25 5 52 15 60 23
9 8 29 20 46 26 65 25 196 155 226 225 7 17 19 38 27 47 8 10 18 34 22 55 4
21 15 65 24 98 14 53 16 188 16 1291 l0 1232 -26 56 c-14 32 -37 68 -51 82
-43 43 -122 77 -195 82 -37 2 -72 10 -77 16 -5 6 -11 166 -14 356 -3 215 -9
358 -16 380 -6 19 -16 71 -21 115 -5 44 -19 104 -30 133 -11 29 -20 60 -20 70
0 9 -9 34 -20 55 -11 20 -20 43 -20 50 0 21 -96 203 -148 282 -102 156 -281
340 -416 431 -101 67 -197 124 -211 124 -7 0 -24 9 -38 20 -14 11 -31 20 -39
20 -7 0 -36 11 -63 24 -28 12 -68 26 -90 30 -22 4 -51 14 -66 22 -15 7 -69 18
-120 25 -51 6 -104 15 -118 20 -26 10 -259 21 -301 13z m420 -176 c19 -8 57
-19 84 -23 27 -4 65 -15 85 -26 20 -10 43 -19 52 -19 20 0 205 -93 264 -133
77 -52 90 -61 145 -106 78 -64 173 -163 241 -254 32 -43 59 -79 59 -81 0 -2
18 -34 41 -72 23 -37 46 -81 52 -98 5 -17 15 -37 21 -45 15 -19 54 -132 71
-206 8 -33 21 -85 30 -115 12 -45 15 -122 15 -436 0 -339 -2 -383 -16 -388 -9
-3 -91 -6 -184 -6 -124 0 -170 3 -178 13 -7 8 -12 130 -14 342 -4 336 -4 334
-48 505 -15 60 -51 154 -65 170 -7 8 -16 26 -20 39 -25 83 -214 294 -338 378
-76 51 -172 103 -191 103 -6 0 -33 11 -61 25 -27 13 -63 25 -80 25 -16 0 -64
9 -105 20 -100 26 -233 26 -342 0 -46 -11 -94 -20 -108 -20 -14 0 -43 -9 -65
-20 -22 -11 -44 -20 -49 -20 -12 0 -133 -58 -166 -80 -14 -9 -45 -30 -69 -46
-58 -37 -208 -187 -245 -245 -16 -24 -37 -55 -46 -69 -42 -65 -120 -248 -120
-283 0 -13 -9 -57 -20 -98 -17 -66 -20 -107 -20 -387 0 -196 -4 -321 -10 -333
-10 -18 -23 -19 -190 -19 -174 0 -180 1 -191 22 -9 16 -10 120 -7 397 5 341 7
382 26 436 11 33 22 77 25 99 8 48 64 194 108 279 84 161 229 345 355 449 82
69 201 152 247 173 17 8 39 19 47 24 36 22 123 61 136 61 8 0 32 9 53 20 22
11 63 24 93 29 29 6 76 17 103 25 73 22 543 18 595 -6z m-63 -548 c37 -13 91
-33 119 -46 28 -13 54 -24 58 -24 4 0 19 -8 34 -18 15 -10 50 -33 77 -52 69
-46 177 -153 221 -219 20 -31 45 -68 55 -83 11 -15 19 -31 19 -35 0 -4 12 -30
25 -58 14 -27 25 -57 25 -66 0 -9 10 -38 22 -65 20 -46 21 -68 26 -394 3 -222
0 -354 -6 -371 l-10 -26 -912 1 c-869 1 -912 2 -922 19 -6 12 -8 146 -6 375 3
345 4 359 26 406 12 27 22 55 22 63 0 15 57 136 91 193 54 90 164 202 264 269
75 50 195 111 218 111 8 0 32 7 53 16 60 25 136 33 291 29 114 -2 156 -7 210
-25z m1545 -1631 c50 -27 49 25 46 -1331 l-3 -1263 -40 -75 c-54 -102 -130
-176 -230 -226 l-80 -39 -1485 0 -1485 0 -80 38 c-110 53 -198 143 -242 249
l-33 77 0 1261 0 1262 28 28 28 28 1780 0 c1066 0 1786 -4 1796 -9z"/>
<path d="M4860 4710 c-131 -14 -290 -105 -314 -180 -7 -22 -17 -35 -28 -35
-24 0 -32 -10 -80 -105 -42 -84 -43 -87 -46 -204 -5 -136 7 -196 38 -196 13 0
20 -7 20 -18 0 -10 7 -28 16 -40 14 -20 14 -23 0 -28 -13 -5 -10 -13 15 -50
16 -24 52 -66 79 -94 55 -54 59 -72 35 -140 -8 -24 -20 -82 -25 -129 -6 -47
-16 -106 -24 -131 -7 -25 -17 -74 -21 -110 -4 -36 -16 -101 -26 -145 -27 -114
-25 -148 10 -187 l29 -33 380 -3 c428 -3 438 -2 469 62 15 33 15 40 -1 118 -9
46 -22 115 -27 153 -6 39 -19 106 -30 150 -10 45 -19 94 -19 111 0 17 -9 66
-20 109 -29 114 -28 119 40 191 66 71 96 119 80 129 -6 4 -5 14 5 28 8 12 15
29 15 38 0 9 9 19 19 22 31 8 44 77 38 197 -4 85 -9 116 -30 162 -16 34 -34
59 -47 63 -15 5 -19 12 -14 31 4 17 -1 32 -19 54 -14 16 -29 26 -32 20 -9 -15
-47 24 -40 42 4 10 -14 28 -55 57 -72 49 -119 68 -215 86 -77 15 -81 15 -175
5z m219 -217 c30 -14 68 -36 84 -49 17 -14 35 -23 42 -20 18 6 47 -28 40 -46
-3 -8 6 -42 21 -74 37 -81 39 -177 5 -254 -15 -36 -20 -55 -12 -58 30 -10 -20
-77 -66 -88 -15 -4 -41 -18 -56 -31 -16 -12 -33 -23 -38 -23 -4 0 -16 -14 -25
-32 -13 -25 -15 -47 -9 -116 4 -47 14 -109 21 -136 8 -28 21 -89 29 -136 7
-47 20 -112 29 -145 8 -33 19 -89 25 -125 10 -57 9 -67 -6 -77 -24 -18 -422
-18 -447 0 -15 11 -16 20 -6 87 7 41 20 108 31 149 10 41 19 87 19 101 0 14 9
60 19 101 32 119 45 242 31 284 -6 19 -15 35 -20 35 -5 0 -22 11 -38 25 -16
14 -47 30 -68 37 -46 16 -84 65 -77 102 3 14 -2 44 -11 66 -20 51 -20 143 1
195 9 22 17 56 17 75 2 42 13 63 31 56 8 -3 30 11 50 30 106 100 254 126 384
67z"/>
</g>
</svg>
